# xmcd CD database file
#
# Track frame offsets:
#	150
#	19733
#	38508
#	57307
#	84477
#	106100
#	126205
#	144852
#	169535
#	186336
#	204729
#	221510
#	243542
#	264904
#	285659
#	306485
#
# Disc length: 4459 seconds
#
# Revision: 0
# Processed by: cddbd v1.4PL0 Copyright (c) Steve Scherf et al.
# Submitted via: NeoAudio 9.9.9
#
DISCID=df116910
DTITLE=Various Artist - Greatest Romantic Salsa Classics Vol. 1
DYEAR=1900
DGENRE=Salsa
TTITLE0=Los Titanes - Zodiaco
TTITLE1=La Sabrosura - Buscalo A El
TTITLE2=John Dennis - Te Tengo En Mente
TTITLE3=Yolanda Rio - Vivir Lo Nuestro
TTITLE4=Los Titanes - Por Retenrte
TTITLE5=Fruko Y Sus Tesos - Cuanto Tiempo Pasó
TTITLE6=La Sabrosura - Vas A Perdonarme
TTITLE7=Joe Arroyo - Mary
TTITLE8=Los Titanes - Lluvia
TTITLE9=The Latin Brothers - Amame Con Tu Experiencia
TTITLE10=Los Tupamaros - Madrigal (Estando Contigo)
TTITLE11=La Sabrosura - Quedate Conmigo
TTITLE12=Los Titanes - No Renunciare
TTITLE13=John Dennis - Y Volvere
TTITLE14=Galileo Y Su Banda - Te Propongo
TTITLE15=La Sabrosura - Tu Amigo O Tu Amante -Remix-
EXTD=
EXTT0=
EXTT1=
EXTT2=
EXTT3=
EXTT4=
EXTT5=
EXTT6=
EXTT7=
EXTT8=
EXTT9=
EXTT10=
EXTT11=
EXTT12=
EXTT13=
EXTT14=
EXTT15=
PLAYORDER=
